<svg xmlns="http://www.w3.org/2000/svg" width="260" height="70" viewBox="0 0 260 70" role="img" aria-label="FitGain logo">
  <!-- Simple icon + name wordmark (beginner friendly) -->
  <rect x="6" y="10" width="48" height="48" rx="14" fill="#111827"/>
  <path d="M22 26h12c4 0 7 3 7 7s-3 7-7 7h-6v14H22V26zm6 6v8h6c2 0 3-2 3-4s-1-4-3-4h-6z" fill="#22c55e"/>
  <path d="M112 22c10 0 18 6 18 17s-8 17-18 17H74V22h38zm-4 28c6 0 10-3 10-11s-4-11-10-11H86v22h22z" fill="#111827" opacity="0"/>

  <!-- Text -->
  <text x="66" y="45" font-family="Arial, sans-serif" font-size="30" font-weight="800" fill="#ffffff">
    Fit <tspan fill="#22c55e">Gain</tspan>
  </text>

  <!-- Small underline bar (strength vibe) -->
  <rect x="66" y="52" width="120" height="4" rx="2" fill="#22c55e"/>
</svg>
